# xmcd
#
# Track frame offsets:
#	150
#	36660
#	72937
#	107710
#	142962
#	179122
#	215280
#	248790
#
# Disc length: 3819 seconds
#
# Revision: 1
# Processed by: cddbd v1.5.2PL0 Copyright (c) Steve Scherf et al.
# Submitted via: EZCDAudioConverter 8.0.2.1
#
DISCID=7a0ee908
DTITLE=Hương Lan, Chí Tâm - Tân Cổ Giao Duyên. Tình Ca 3
DYEAR=1999
DGENRE=
TTITLE0=Đưa em vào hạ
TTITLE1=Mùa sầu riêng
TTITLE2=Hận Tha La
TTITLE3=Thành phố buồn
TTITLE4=Thà như giọt mưa
TTITLE5=Ga chiều
TTITLE6=Tình thắm duyên quê
TTITLE7=Tình bơ vơ
EXTD=
EXTT0=
EXTT1=
EXTT2=
EXTT3=
EXTT4=
EXTT5=
EXTT6=
EXTT7=
PLAYORDER=
